<?xml version="1.0" encoding="UTF-8" standalone="no"?>
<!DOCTYPE svg PUBLIC "-//W3C//DTD SVG 1.1//EN" "http://www.w3.org/Graphics/SVG/1.1/DTD/svg11.dtd">
<svg width="100%" height="100%" viewBox="0 0 320 320" version="1.1" xmlns="http://www.w3.org/2000/svg" xmlns:xlink="http://www.w3.org/1999/xlink" xml:space="preserve" xmlns:serif="http://www.serif.com/" style="fill-rule:evenodd;clip-rule:evenodd;stroke-linejoin:round;stroke-miterlimit:2;">
    <g transform="matrix(1,0,0,1,-340,-340)">
        <g transform="matrix(1,0,0,1,140,-180)">
            <g transform="matrix(1,0,0,1,-300,-80)">
                <path d="M660,800C704.183,800 740,835.817 740,880L820,880C820,791.634 748.366,720 660,720C615.817,720 580,684.183 580,640L500,640C500,728.366 571.634,800 660,800Z"/>
            </g>
            <g transform="matrix(1,0,0,1,40,-40)">
                <circle cx="320" cy="600" r="40"/>
            </g>
            <g transform="matrix(1,0,0,1,40,200)">
                <circle cx="320" cy="600" r="40"/>
            </g>
        </g>
    </g>
</svg>
